<?xml version="1.0" encoding="UTF-8" standalone="no"?><!DOCTYPE svg PUBLIC "-//W3C//DTD SVG 1.1//EN" "http://www.w3.org/Graphics/SVG/1.1/DTD/svg11.dtd"><svg width="100%" height="100%" viewBox="0 0 1642 1746" version="1.1" xmlns="http://www.w3.org/2000/svg" xmlns:xlink="http://www.w3.org/1999/xlink" xml:space="preserve" xmlns:serif="http://www.serif.com/" style="fill-rule:evenodd;clip-rule:evenodd;stroke-linejoin:round;stroke-miterlimit:2;"><g><path d="M794.4,1469.7c-18.7,-11.6 -73.3,-45.5 -121.6,-75.3c-48.2,-30 -113.7,-70.5 -145.6,-90.4c-31.8,-19.7 -110.4,-68.5 -174.6,-108.4c-64.2,-39.9 -118.3,-74 -120.5,-75.8l-3.6,-3.5l0.3,-369c0.5,-348.2 0.7,-369.2 3.3,-369.7c1.7,-0.3 38.4,21.5 81.9,48.7c43.5,27 103.8,64.5 133.7,83.2c30.1,18.5 127.9,79.6 217.5,135.5c89.5,55.8 163.8,102 165,102.5c1.3,0.5 3.3,0 4.6,-1c1.8,-1.5 9.2,2.5 35.9,19.4c18.5,11.7 59.1,37.1 90,56.4c31,19.5 66.4,41.9 78.6,49.7c12.2,8 38.9,24.8 59.1,37.6c23.8,14.9 36.9,24 36.9,25.8c0,1.5 -3.5,4.6 -7.8,7.3c-4.5,2.5 -19.9,11.9 -34.4,21c-40.5,25.5 -76.8,48 -105.1,65.4c-14.1,8.6 -34.6,21.3 -45.5,28.5c-10.9,7 -27.6,17.5 -37.2,23.2c-9.6,5.8 -25.5,15.7 -35.6,22.2c-30.1,19 -35.4,21.7 -40.4,19.7c-2.3,-0.8 -34.4,-20.5 -71.3,-43.9c-36.9,-23.2 -103.9,-65.2 -149,-93.5c-45,-28.1 -93.5,-58.6 -107.6,-67.5c-14.1,-8.9 -50.6,-31.8 -81.1,-51c-30.5,-19.2 -78.5,-49.2 -106.4,-66.9c-39,-24.5 -52.1,-32 -55.5,-31.6l-4.5,0.5l-0.3,168l-0.5,168l5.5,3.5c5.6,3.8 111.4,69.5 347,215.3c32.3,20 84.9,52.6 116.7,72.5c96.3,59.9 108.7,67.4 111.2,66.4c1.3,-0.5 34.9,-21 74.6,-45.3c111.4,-68.5 143.8,-88.4 182.4,-112c19.5,-11.9 60.2,-36.9 90.2,-55.5c30.1,-18.5 70.7,-43.5 90.2,-55.5c160,-98.6 153.2,-95 160.2,-86c8.6,10.9 3.8,15.7 -44.8,44.8c-14.7,8.8 -29.8,18 -55.8,34.3c-5,3.1 -17.2,10.8 -27.3,16.9c-52,32.1 -80.7,49.8 -101,62c-6.3,3.8 -23.2,14.2 -37.2,23.2c-39.4,24.7 -74.6,46.3 -75.5,46.3c-0.5,0 -7,4 -14.4,8.8c-7.5,4.8 -19.7,12.4 -27.3,17c-7.6,4.5 -15.5,9.2 -17.7,10.6c-7.6,4.8 -28.1,17.4 -31.5,19.2c-6.8,3.8 -26.8,16.2 -33.4,20.7c-3.8,2.7 -7.3,4.8 -7.8,4.8c-0.7,0 -5.1,2.8 -10.2,6.1c-9.6,6.5 -42,26.2 -85.7,52.5c-14.6,8.8 -28,15.9 -29.8,15.7c-2,0 -18.7,-9.6 -37.4,-21.2l-0.1,0Z" style="fill:#ed4727;fill-rule:nonzero;"/><path d="M1412.1,1008.8l-4.6,-4l0,-233.7l-4.1,0c-5.3,0.2 -35.1,18 -88.2,52.6c-7.3,5 -15.4,9.9 -18,11.2c-10.7,5.5 -19.5,0.5 -19.5,-11.2c0,-5.6 0.5,-6.3 4.1,-6.3c3.6,0 4.1,-0.7 4.1,-5.8c0,-3.1 -0.7,-5.8 -1.7,-5.8c-0.8,0 -1.7,-1.2 -1.7,-2.5c0,-1.3 -1.2,-2.5 -2.5,-2.5c-1.7,0 -2.5,-1.8 -2.5,-5.8c0,-4 -0.8,-5.8 -2.5,-5.8c-1.8,0 -2.5,-2 -2.5,-7.5c0,-6.1 -0.5,-7.5 -3.1,-7.5c-2.3,0 -3.3,-1.7 -4.1,-6.5c-1,-6.6 -3.6,-8.5 -12.1,-8.5c-3.1,0 -3.8,-0.8 -3.8,-5.8c0,-4.3 -1,-6.5 -4.1,-8.5c-2.3,-1.5 -4.1,-4.1 -4.1,-6c0,-2.8 -4.3,-12.2 -6.6,-14.6c-0.5,-0.5 -1.5,-2 -2.5,-3.5c-4.5,-7.1 -15,-19.5 -16.9,-19.5c-1.2,-0.2 -2.2,-1.3 -2.2,-2.8c0,-3.3 -4,-7.3 -7.3,-7.3c-1.5,0 -2.7,-1 -2.7,-2.2c0,-1.2 -1.5,-3.8 -3.3,-5.8c-1.8,-2 -3.3,-4.3 -3.3,-5.3c0,-0.8 -1.2,-1.7 -2.5,-1.7c-1.3,0 -2.5,-1.2 -2.5,-2.5c0,-1.3 -1.2,-2.5 -2.5,-2.5c-1.7,0 -2.5,-1.7 -2.5,-5c0,-2.7 -0.7,-5 -1.5,-5c-0.8,0 -2.3,-2.2 -3.3,-5c-0.8,-2.7 -2.5,-5 -3.3,-5c-1,0 -1.8,-1.5 -1.8,-3.3c0,-3.5 -5.5,-9.9 -8.3,-9.9c-0.8,0 -1.7,-1 -1.7,-2c0,-1.2 -2.3,-4.8 -5,-8c-2.7,-3.1 -5,-6.3 -5,-7c0,-0.8 -1.5,-1.3 -3.3,-1.3c-2.7,0 -3.3,-1.2 -3.3,-5.1c0,-3.5 -1.3,-6.1 -4.1,-8.5c-2.2,-1.7 -5.3,-5.8 -6.8,-8.9c-1.5,-3.1 -3.3,-5.6 -4.1,-5.6c-0.8,0 -1.5,-0.8 -1.5,-1.8c0,-2 -4.1,-6.5 -6.1,-6.5c-0.8,0 -2.3,-2.2 -3.3,-5c-1,-2.7 -3,-5 -4.5,-5c-4.3,0 -3,-4.3 2,-6.8c2.5,-1.3 11.4,-6.8 19.9,-12.2c21.8,-14.1 34.4,-22 95,-59.9c29.5,-18.4 79.9,-50.1 112.2,-70.3l58.8,-36.9l0,-102.6l-590.3,-0.8c-557.9,-0.8 -590.5,-1 -593.8,-3.6c-4.1,-3.6 -4.3,-11.3 -0.2,-16.4l3.1,-4l600.8,-0.5c548.3,-0.3 600.9,-0.2 603.4,2.2c2.5,2.5 2.7,35.9 2.7,370.9c0,319.9 -0.3,368.9 -2.5,372.8c-4,8 -11.2,8.9 -18.5,2.8l0,0.1Z" style="fill:#ed4727;fill-rule:nonzero;"/></g><g><path d="M1179.3,899.1c-0.5,-2.7 -1.3,-10.6 -2,-17.7c-0.8,-9.4 -2,-14.1 -4.1,-16.5c-1.8,-1.8 -3.1,-4.6 -3.1,-6.3c0,-1.7 -1.5,-3.8 -3.3,-5c-1.8,-1.2 -3.3,-2.8 -3.3,-3.8c0,-1 -1.5,-2.8 -3.3,-4.1c-1.8,-1.3 -3.3,-4.1 -3.3,-6.1c0,-2.2 -1.5,-4.6 -3.3,-5.8c-1.8,-1.2 -3.3,-3.1 -3.3,-4.3c0,-2.3 -3.1,-8.3 -6.3,-11.6c-1.2,-1.3 -3.5,-5.3 -5,-8.8c-1.5,-3.6 -3.3,-6.5 -4,-6.5c-0.8,0 -1.3,-1.2 -1.3,-2.5c0,-1.3 -0.7,-2.5 -1.7,-2.5c-0.8,0 -1.7,-1.5 -1.7,-3.5c0,-2 -1.3,-3.8 -3.3,-4.3c-1.8,-0.5 -3.3,-2.3 -3.3,-3.8c0,-1.7 -1.5,-3.6 -3.3,-4.1c-1.8,-0.5 -3.3,-2 -3.3,-3c0,-1.2 -2.3,-3.5 -5,-5.3c-3.5,-2.3 -5,-4.6 -5,-7.8c0,-2.7 -0.7,-4.6 -1.7,-4.6c-0.8,0 -1.7,-0.8 -1.7,-1.8c0,-3 -7.1,-8 -11.4,-8.1c-5.1,0 -10.1,-6 -10.1,-11.9c0,-2.5 -0.8,-4.6 -1.8,-4.6c-3.3,0 -6.5,-4.8 -6.5,-9.9c0,-3.8 -0.8,-5.5 -3.3,-6.1c-1.8,-0.5 -3.3,-2 -3.3,-3.1c0,-1.3 -1.2,-2.3 -2.5,-2.3c-1.5,0 -3,-1.2 -3.5,-2.5c-0.7,-1.7 -3.1,-2.5 -7.1,-2.5c-4.5,0 -7.1,-1.2 -10.6,-4.8c-2.5,-2.7 -4.5,-5.3 -4.5,-6c0,-0.5 -1.5,-2.5 -3.3,-4.5c-1.8,-2 -3.3,-5.3 -3.3,-7.5c0,-2.2 -0.7,-3.8 -1.5,-3.8c-0.8,0 -1.8,-1.5 -2.3,-3.3c-0.5,-2.3 -2.3,-3.3 -5.1,-3.3c-3.6,0 -4.3,-0.8 -4.3,-4.6c0,-2.7 -1.5,-6.3 -3.3,-8.3c-1.8,-2 -3.3,-4.3 -3.3,-5.1c0,-0.8 -1.7,-1.8 -3.6,-2.2c-4,-0.5 -7.5,-7.5 -5.8,-11.6c0.5,-1.3 9.6,-8 20.5,-14.6c10.8,-6.6 24.3,-15.2 30.3,-18.9c6,-3.8 13.1,-8 15.7,-9.2c2.8,-1.3 6.8,-4 9.1,-5.8c2.3,-2 13.3,-9.2 24.3,-16.2l20.2,-12.6l3.5,4.3c1.8,2.3 3.3,5.3 3.3,6.6c0,1.5 1,2.2 2.5,1.5c1.5,-0.5 2.5,0 2.5,1.5c0,1.3 0.8,2.5 1.7,2.5c1,0 1.7,1.2 1.7,2.5c0,1.3 1.2,2.5 2.7,2.5c1.3,0 2,0.8 1.5,1.8c-0.7,1 0.3,2.2 2.3,2.7c3.8,1 4.8,3.8 1.5,3.8c-1.2,0 0.2,2.2 2.8,4.8c6,5.5 9.9,11.7 7.5,11.7c-0.8,0 -1.7,0.7 -1.7,1.5c0,0.8 1.5,1.2 3.3,0.7c2.2,-0.7 3.3,0 3.3,1.7c0,1.3 2.8,5.5 6.5,9.1c3.5,3.8 5.5,7.1 4.5,7.6c-1.2,0.5 -1,0.8 0.3,0.8c3.1,0.2 8.6,6.5 8.6,9.9c0,1.8 1.5,3.8 3.5,4.3c2,0.7 3,2 2.5,3.5c-0.5,1.3 0,2.3 1,2.3c1,0 1.3,0.5 0.8,1.2c-0.7,0.5 0.8,2.3 3.1,4c4,2.7 4.1,2.8 1.3,4.5c-1.8,1 -2.5,2.3 -1.8,3c0.7,0.7 2.2,0.3 3.1,-0.7c2.7,-2.7 4.6,-2.5 4.6,0.5c0,1.3 -0.7,2.5 -1.7,2.5c-0.8,0 -1.7,0.8 -1.7,1.8c0,1 1.5,1.3 3.3,0.7c2.5,-0.8 3,-0.5 2.3,1.5c-0.5,1.3 0.7,4.1 2.5,6.1c2,2.2 3.5,4.6 3.5,5.8c0,1.2 1.3,1.7 3.3,1.2c2.3,-0.7 3.3,0 3.3,1.8c0,1.5 0.8,2.7 1.7,2.7c1,0 1.7,1.5 1.7,3.3c0,1.8 0.7,3.1 1.5,2.8c1.3,-0.3 14.1,14.4 17.7,20.5c1,1.7 2.3,2.7 2.8,2c0.7,-0.5 1.2,0.3 1.2,1.8c0,1.7 1.5,5.1 3.3,7.6c1.8,2.7 3,5.8 2.5,7.1c-0.7,1.3 0.8,3.5 3.6,5.3c4.6,3 4.6,3 1.8,-0.3c-3.6,-4 -3.8,-5.5 -0.5,-5.5c1.3,0 2.5,1.2 2.5,2.7c0,1.3 0.8,2 1.7,1.5c1,-0.5 1.7,0.3 1.7,2c0,2.3 0.3,2.5 1.5,0.8c1,-1.8 1.7,-1.7 2.5,0.7c1.3,3.3 -4.8,10.2 -6.1,6.8c-0.5,-1.2 -1,-0.3 -1,1.8c-0.2,3.1 0.3,3.5 3,2c2.5,-1.2 3.8,-1 5.8,1c1.8,1.7 4,2.2 6.3,1.3c3.1,-1 3.5,-0.7 2,1.2c-2.7,3.1 -1,13.8 1.7,11.6c2.3,-2 10.9,4.6 10.9,8.3c0,1.8 -0.3,1.8 -1.7,-0.2c-1.3,-2 -1.7,-1.7 -1.7,1.7c0,3.3 -0.3,3.6 -1.7,1.7c-1.3,-2 -1.7,-1.8 -1.7,1.3c0,4.8 2.3,4.6 6.3,-0.5c3.8,-4.8 7,-5.5 7,-1.3c0,1.5 -0.5,2.2 -1.2,1.7c-1.7,-1.8 -7,3.8 -6,6.5c0.5,1.3 1.5,1.8 2.3,1.3c2.5,-1.5 1.7,1 -1,3.8c-3.3,3.3 -1.8,5 1.7,2.2c2.3,-2 2.5,-1.7 1.7,2.2c-0.7,2.5 -0.5,4.5 0.3,4.5c1,0 3.1,1.3 5.1,3l3.3,3l-3.5,2.8c-2,1.5 -2.7,2.8 -1.5,2.8c1.2,0 2,1.2 2,2.5c0,1.3 -0.7,2.5 -1.7,2.5c-0.8,0 -1.7,1 -1.7,2.3c0,2.7 -4.5,4.8 -6.8,3.3c-2.7,-1.5 -1.7,2 1.7,5.6c4,4.6 6.8,4.6 7,0c0,-2.2 0.5,-2.8 1,-1.7c1,2.7 3.5,2.5 6.3,-0.3c1.3,-1.2 4.1,-1.8 6.5,-1.5l4.3,0.8l-3.8,3c-2,1.5 -6.6,4.5 -10.2,6.5c-3.6,2 -17.9,10.8 -31.8,19.7c-13.9,8.8 -31,19.7 -38.1,24.2c-7.1,4.5 -18.7,11.8 -25.7,16c-14.9,9.4 -20.5,10.4 -21.8,3.6l-0.4,-0.4Z" style="fill:#d74024;fill-rule:nonzero;"/></g><g><path d="M1126.5,941.5l3.6,-4l-50.8,-32c-28,-17.7 -52.1,-32.9 -53.8,-34.2c-2.7,-1.8 -2.8,-3.5 -1.2,-17.2c1.5,-13.6 1.3,-15.5 -1.2,-19.2c-1.7,-2.2 -3.5,-4.1 -4.1,-4.1c-0.8,0 -1.3,-2.7 -1.3,-5.8c0,-4.6 -0.7,-5.8 -3.3,-5.8c-2,0 -3.3,-1.2 -3.3,-2.8c-0.2,-3.3 -7.3,-12.1 -9.9,-12.1c-0.8,0 -1.7,-2.5 -1.7,-5.5c0,-4.6 -3.3,-11.9 -6.8,-14.4c-0.5,-0.5 -2.2,-3.1 -3.6,-6.1c-1.5,-2.8 -4.6,-6.6 -7,-8.5c-2.3,-1.8 -4.1,-4 -4.1,-4.8c0,-1 -1.5,-3 -3.3,-4.6c-1.8,-1.7 -3.3,-4 -3.3,-5.3c0,-1.2 -0.7,-2.2 -1.3,-2.2c-0.8,0 -2.3,-1.8 -3.6,-4c-1.2,-2.2 -3.5,-4.5 -5.1,-4.8c-2.2,-0.7 -3.1,-2.3 -3.1,-6c0,-5.3 -4.3,-11.8 -7.8,-11.8c-1.2,0 -2.2,-1.5 -2.2,-3.5c0,-4.3 -3,-10.1 -7,-12.8c-1.7,-1.2 -3,-3.8 -3,-6c0,-2 -0.8,-4.5 -1.8,-5.5c-1,-1 -1.5,-4.6 -1.2,-8.1c0.5,-6.1 1.3,-7 13.2,-14.7c33.9,-21.8 89.5,-56.1 91.7,-56.4c5.1,-0.8 0.8,4.1 -7.6,8.5c-5.6,2.8 -13.1,8.3 -18.4,13.3c-1.5,1.3 -3.5,2.5 -4.6,2.5c-1.5,0 -1.5,0.8 -0.2,3.5c1.2,2 2.8,3 4.5,2.5c1.7,-0.7 2.8,0.2 3.3,2.5c0.7,2.2 1.8,3 3.3,2.3c1.8,-0.5 2.2,-0.2 1.5,1.7c-0.5,1.5 1,3.8 4.1,6.1c4.8,3.5 9.1,10.3 8.5,13.3c-0.2,0.8 0.7,1.3 2,1.3c1.5,0 2,1.2 1.5,3.1c-0.5,1.8 0.3,5 1.8,7.1c2.2,3 2.7,3.1 2.7,0.8c0,-1.5 -1,-2.8 -2,-2.8c-1.5,0 -1.3,-0.7 0.3,-1.7c3.8,-2.5 4.3,-2.2 4.1,5.1c0,3.6 0.5,7.1 1.2,7.6c0.8,0.3 1.2,-0.2 1,-1.3c-0.3,-1.2 0.8,-2.5 2.5,-2.8c2.7,-0.5 2.8,-0.2 1.2,3c-2.7,4.8 0.2,7.6 7.6,8c3.5,0.2 7,1.3 8,3c1.8,2.3 2.2,2.3 4.1,0c1.3,-1.5 3,-2.7 4,-2.7c1.2,0 1.2,0.7 -0.2,2c-2.8,2.8 -2.5,8 0.7,8c1.5,0 3,1.5 3.5,3.3c0.5,1.8 1.5,2.8 2.3,2.3c0.8,-0.5 1.5,0 1.5,0.8c0,1 -0.7,1.8 -1.7,1.8c-2.5,0 -2,3.1 0.8,6c1.7,1.7 3.8,2.2 6.1,1.3c3.3,-1 3.5,-0.8 1.5,1.5c-1.8,2.3 -1.8,3 0.5,3.8c3.5,1.3 3.5,3.6 0,4.3c-2.2,0.5 -2.2,1 0.8,4.5l3.5,4l0,-4.3c0,-2.5 0.5,-4.5 1.3,-4.5c1.7,0 7,6.3 7,8.3c0,0.8 1.5,2.5 3.3,3.6c1.8,1.2 3.3,3.1 3.3,4.5c0,1.3 0.5,2 1,1.3c0.7,-0.5 2.2,0.2 3.5,1.5c2,2 2,3 0.5,4.8c-2.8,3.5 4.5,9.6 8.6,7.3c2,-1 3,-1 3,0.2c0,0.8 -0.7,1.7 -1.7,1.7c-3,0 -1.7,4.8 1.7,5.8c1.8,0.5 3.3,2.5 3.3,4.1c0,2.3 0.8,2.8 3.6,2c2.3,-0.5 3.1,-0.2 2.3,1c-0.5,1 0.2,2.8 1.5,4.1c1.8,2 2,2.8 0.3,3.3c-1.5,0.7 -1.5,1 0.2,1c1,0.2 2,1.3 2,2.7c0,1.3 0.8,2.5 1.7,2.5c1,0 1.7,1.2 1.7,2.5c0,1.5 1,3 2.3,3.5c1.3,0.5 2.2,1.8 1.7,3c-0.3,1 0.5,3.5 2.2,5.3c4,4.5 7.1,10.1 7.1,12.6c0,1.2 1.5,3.1 3.3,4.3c1.8,1.2 3.3,3.6 3.3,5.8c0,2 1.5,4.8 3.3,6.1c1.8,1.3 3.3,3.1 3.3,4.1c0,1 1.5,2.7 3.3,3.8c1.8,1.2 3.3,3.3 3.3,5c0,1.7 1.5,4.6 3.3,6.6c1.8,2 3.3,4.3 3.3,5.3c0,0.8 0.8,1.7 1.7,1.7c2.2,0 2.2,6.1 -0.2,7.5c-1,0.8 -0.5,2.2 1.7,3.6c3.3,2.3 3.3,6.6 0,4.5c-1,-0.5 -1.5,1.5 -1.2,4.8c0.2,4.5 1,5.6 2.8,4.8c2.3,-0.8 2.3,-0.5 0.3,1.8c-1.3,1.7 -1.8,3.3 -1.3,3.8c0.8,1 8,-2.2 9.4,-4.3c1.5,-1.8 12.9,-6.6 16,-6.6c2.7,0 -2.7,3.8 -28.5,20.2c-4.5,3 -16.4,10.6 -26.5,17c-9.9,6.6 -21.5,14.1 -25.7,16.5c-7.1,4.3 -7.3,4.3 -3.8,0.7l-0,-0Z" style="fill:#c63c23;fill-rule:nonzero;"/></g><g><path d="M1406.8,876.8c0.2,-54 0.8,-92.5 1.5,-85.7c2,20.2 2,183.7 0,183.7c-1.2,0 -1.7,-31.6 -1.5,-98l0,-0Z" style="fill:#b33820;fill-rule:nonzero;"/><path d="M1432.3,588.3c0,-176.6 0.2,-248.6 0.3,-160c0.3,88.7 0.3,233.2 0,321c-0.2,88 -0.3,15.5 -0.3,-161l0,0Z" style="fill:#b33820;fill-rule:nonzero;"/><path d="M997.1,853.4c-61.4,-38.5 -141.2,-88.7 -153.1,-96.3c-11.6,-7.5 -12.1,-8.1 -9.1,-10.3c1.8,-1.3 27.5,-17.5 57.1,-35.9c48.5,-30.3 63.7,-38.2 55.3,-29c-1.5,1.7 -2.2,3.8 -1.3,5c0.8,1.5 0.3,1.7 -1.5,1c-3.5,-1.3 -5.1,3.6 -2.3,7c1.3,1.5 2,3.6 1.7,5c-0.5,1.2 0.7,3.8 2.5,5.8c9.6,9.8 12.9,14.4 8.6,11.8c-0.8,-0.5 -1.7,0.2 -1.7,1.5c0,1.5 1,2.7 2.2,2.7c2.3,0 7.8,5.8 7.8,8.1c0,0.8 1,2 2.2,2.3c1.5,0.7 1.5,1.3 -0.3,2.5c-1.2,0.8 -1.7,2.5 -1,3.6c1,1.5 1.5,1.5 2.5,0c0.8,-1.5 2.2,-0.2 4.1,4c1.7,3.3 3.5,6 4.3,6c0.8,0 1.5,1 1.5,2.2c0,1.3 1.5,3.6 3.3,5.3c1.8,1.7 3.3,4 3.3,5.3c0,2 2.2,2.8 5.5,2.3c0.8,-0.2 1,0.3 0.5,1.2c-0.5,0.8 0.8,3.1 3,5.5c2,2.2 3.6,4.5 3.6,5.1c-0.2,1.3 5,8.8 8.6,12.2c1,1.2 2,2.8 2,3.8c0,1 0.8,1.8 1.8,1.8c1,0 0.5,1.3 -1.2,2.8c-1.7,1.8 -2.2,3 -1,3.5c2.7,0.8 13.6,11.9 11.8,11.9c-0.8,0 -1.5,0.7 -1.5,1.7c0,0.8 1.2,1.2 2.7,0.5c1.7,-0.7 2.8,0.2 3.5,2.7c0.5,1.8 1.5,3 2.3,2.5c0.8,-0.5 1.5,-0.2 1.5,0.8c0,0.8 -0.7,2.2 -1.7,2.7c-3,1.8 -1.8,4.5 1.7,3.6c1.8,-0.5 3.3,-0.2 3.3,0.7c0,0.8 -1,1.5 -2,1.5c-1.2,0.2 -0.3,1.7 1.8,3.3c2.2,1.8 3.3,3.3 2.7,3.3c-0.8,0 0,1.5 1.8,3.5c1.7,1.8 2.3,3.3 1.5,3.1c-4,-0.8 -4.5,0.2 -1.7,3.3c2.2,2.3 2.3,3.3 0.8,3.3c-1.2,0 -0.5,1.5 1.7,3.3c2.2,1.8 3,3.3 2,3.3c-1,0 -2.3,-0.7 -2.8,-1.7c-0.5,-0.8 -2.2,-1.7 -3.6,-1.7c-2.2,0 -2.2,0.5 -0.5,2.5c1.7,2 1.7,3.1 0.3,4.5c-2.5,2.5 -2.7,8 -0.3,8c1,0 1.7,0.7 1.7,1.7c0,0.8 -1.2,1.2 -2.5,0.7c-1.8,-0.8 -2.2,-0.3 -1.5,1.7c0.5,1.5 0.3,2.7 -0.3,2.7c-0.8,0 -14.9,-8.5 -31.3,-18.7l-0,-0Z" style="fill:#b33820;fill-rule:nonzero;"/><path d="M228.9,392.2c0,-6.8 0.3,-9.6 0.7,-6.1c0.3,3.3 0.3,8.9 0,12.4c-0.3,3.3 -0.7,0.5 -0.7,-6.3Z" style="fill:#b33820;fill-rule:nonzero;"/></g></svg>