<svg version="1.0" xmlns="http://www.w3.org/2000/svg" width="394" height="419" viewBox="0 0 394 419" preserveAspectRatio="xMidYMid meet">
 <g fill="#152944">
  <path d="M0 209.71 l0 -209.71 197 0 197 0 0 209.71 0 209.71 -197 0 -197 0 0 -209.71z m205.90 142.94 c9.10 -5.44 17.79 -10.76 20.26 -12.39 1.23 -0.79 2.30 -1.47 2.46 -1.47 0.12 0 0.95 -0.52 1.87 -1.15 1.59 -1.07 6.39 -4.05 8.02 -4.96 0.79 -0.44 5.72 -3.46 7.55 -4.61 0.52 -0.32 2.42 -1.47 4.25 -2.54 1.83 -1.11 4.77 -2.94 6.55 -4.09 1.79 -1.15 3.34 -2.11 3.46 -2.11 0.20 0 8.66 -5.20 18.11 -11.12 3.38 -2.14 7.43 -4.65 8.94 -5.56 4.85 -2.94 11.76 -7.19 24.23 -14.89 2.42 -1.47 5.36 -3.30 6.55 -4.05 6.24 -3.89 9.85 -6.12 13.38 -8.22 5.88 -3.50 9.89 -6.16 10.64 -6.99 0.60 -0.64 0.60 -0.87 0.20 -1.39 -0.28 -0.32 -0.71 -0.60 -1.03 -0.60 -0.48 0 -9.65 5.56 -35.11 21.25 -4.69 2.86 -14.42 8.86 -21.65 13.31 -7.19 4.45 -18.11 11.16 -24.23 14.89 -15.97 9.81 -25.70 15.77 -43.49 26.69 -13.19 8.10 -15.93 9.65 -17.16 9.65 -1.67 0 -1.91 -0.16 -27.52 -16.09 -7.63 -4.77 -20.26 -12.59 -28 -17.40 -56.56 -35.03 -81.94 -50.76 -83.29 -51.67 l-1.31 -0.83 0.12 -41.51 0.08 -41.51 2.26 -0.12 2.26 -0.12 12.23 7.71 c6.71 4.25 18.23 11.44 25.54 16.05 7.31 4.61 16.09 10.09 19.46 12.23 3.38 2.14 15.01 9.45 25.82 16.20 10.80 6.79 26.81 16.80 35.55 22.32 8.74 5.48 16.13 10.13 16.40 10.29 0.56 0.32 1.83 -0.36 8.22 -4.41 2.42 -1.51 6.24 -3.89 8.54 -5.28 2.30 -1.35 6.32 -3.89 8.94 -5.56 2.62 -1.71 7.55 -4.77 10.92 -6.83 6.39 -3.93 14.30 -8.86 25.22 -15.69 3.50 -2.18 7.07 -4.37 7.94 -4.89 0.87 -0.52 3.57 -2.22 5.96 -3.77 6.16 -4.01 9.49 -6.12 12.79 -8.18 1.59 -0.95 4.37 -2.70 6.16 -3.85 1.83 -1.19 5.64 -3.57 8.46 -5.36 2.86 -1.79 5.76 -3.57 6.43 -4.05 0.71 -0.44 2.94 -1.83 4.96 -3.10 2.03 -1.27 6.04 -3.81 8.86 -5.64 9.65 -6.20 11.84 -7.35 14.18 -7.35 l2.11 0 0 27.96 c0 26.93 0.04 28 0.75 28.80 1.03 1.15 1.71 1.03 2.42 -0.36 0.52 -1.03 0.60 -10.96 0.60 -88.33 0 -79.28 -0.04 -87.22 -0.64 -87.82 -0.60 -0.56 -13.11 -0.60 -143.50 -0.52 -152.12 0.12 -144.22 0.04 -144.22 1.91 0 0.36 0.40 0.87 0.91 1.11 0.68 0.36 34.32 0.52 142.27 0.60 l141.40 0.08 0 13.50 0 13.50 -14.10 8.86 c-7.74 4.85 -19.86 12.47 -26.93 16.88 -14.34 8.98 -17.48 10.96 -22.80 14.38 -2.03 1.31 -4.05 2.58 -4.49 2.82 -1.99 1.07 -9.65 5.92 -10.53 6.71 -0.56 0.44 -1.51 1.07 -2.18 1.39 -0.64 0.32 -2.46 1.39 -4.05 2.38 -16.13 10.09 -45.52 28.44 -49.53 30.86 -3.06 1.87 -3.77 2.14 -5.16 2.03 -1.35 -0.12 -8.62 -4.49 -40.75 -24.59 -21.53 -13.42 -45.64 -28.48 -53.62 -33.44 -7.98 -4.96 -22.16 -13.82 -31.58 -19.66 l-17.08 -10.64 -0.12 87.18 -0.08 87.22 0.87 0.83 c0.52 0.48 13.50 8.66 28.91 18.23 15.41 9.57 34.28 21.29 41.90 26.02 34.83 21.65 71.81 44.48 72.05 44.48 0.08 0 2.82 -1.63 6.16 -3.61z"/>
 </g>
 <g fill="#ed4727">
  <path d="M190.65 352.73 c-4.49 -2.78 -17.59 -10.92 -29.19 -18.07 -11.56 -7.19 -27.29 -16.92 -34.95 -21.69 -7.63 -4.73 -26.49 -16.44 -41.90 -26.02 -15.41 -9.57 -28.40 -17.75 -28.91 -18.19 l-0.87 -0.83 0.08 -88.57 c0.12 -83.57 0.16 -88.61 0.79 -88.73 0.40 -0.08 9.21 5.16 19.66 11.68 10.45 6.47 24.90 15.49 32.09 19.98 7.23 4.45 30.70 19.10 52.19 32.53 21.49 13.38 39.32 24.47 39.60 24.59 0.32 0.12 0.79 0 1.11 -0.24 0.44 -0.36 2.22 0.60 8.62 4.65 4.45 2.82 14.18 8.90 21.61 13.54 7.43 4.69 15.93 10.05 18.87 11.92 2.94 1.91 9.33 5.96 14.18 9.02 5.72 3.57 8.86 5.76 8.86 6.20 0 0.36 -0.83 1.11 -1.87 1.75 -1.07 0.60 -4.77 2.86 -8.26 5.04 -9.73 6.12 -18.43 11.52 -25.22 15.69 -3.38 2.07 -8.30 5.12 -10.92 6.83 -2.62 1.67 -6.63 4.21 -8.94 5.56 -2.30 1.39 -6.12 3.77 -8.54 5.32 -7.23 4.57 -8.50 5.20 -9.69 4.73 -0.56 -0.20 -8.26 -4.93 -17.12 -10.53 -8.86 -5.56 -24.94 -15.65 -35.75 -22.44 -10.80 -6.75 -22.44 -14.06 -25.82 -16.20 -3.38 -2.14 -12.15 -7.63 -19.46 -12.23 -7.31 -4.61 -18.83 -11.80 -25.54 -16.05 -9.37 -5.88 -12.51 -7.67 -13.31 -7.59 l-1.07 0.12 -0.08 40.31 -0.12 40.31 1.31 0.83 c1.35 0.91 26.73 16.68 83.29 51.67 7.74 4.81 20.38 12.63 28 17.40 23.12 14.38 26.09 16.17 26.69 15.93 0.32 -0.12 8.38 -5.04 17.91 -10.88 26.73 -16.44 34.51 -21.21 43.77 -26.89 4.69 -2.86 14.46 -8.86 21.65 -13.31 7.23 -4.45 16.96 -10.45 21.65 -13.31 38.41 -23.67 36.78 -22.80 38.45 -20.65 2.07 2.62 0.91 3.77 -10.76 10.76 -3.53 2.11 -7.15 4.33 -13.38 8.22 -1.19 0.75 -4.13 2.58 -6.55 4.05 -12.47 7.71 -19.38 11.96 -24.23 14.89 -1.51 0.91 -5.56 3.42 -8.94 5.56 -9.45 5.92 -17.91 11.12 -18.11 11.12 -0.12 0 -1.67 0.95 -3.46 2.11 -1.79 1.15 -4.73 2.98 -6.55 4.09 -1.83 1.07 -3.73 2.22 -4.25 2.54 -1.83 1.15 -6.75 4.17 -7.55 4.61 -1.63 0.91 -6.43 3.89 -8.02 4.96 -0.91 0.64 -1.75 1.15 -1.87 1.15 -0.16 0 -1.23 0.68 -2.46 1.47 -2.30 1.55 -10.09 6.28 -20.57 12.59 -3.50 2.11 -6.71 3.81 -7.15 3.77 -0.48 0 -4.49 -2.30 -8.98 -5.08z"/>
  <path d="M338.91 242.12 l-1.11 -0.95 0 -28.04 0 -28.04 -0.99 0 c-1.27 0.04 -8.42 4.33 -21.17 12.63 -1.75 1.19 -3.69 2.38 -4.33 2.70 -2.58 1.31 -4.69 0.12 -4.69 -2.70 0 -1.35 0.12 -1.51 0.99 -1.51 0.87 0 0.99 -0.16 0.99 -1.39 0 -0.75 -0.16 -1.39 -0.40 -1.39 -0.20 0 -0.40 -0.28 -0.40 -0.60 0 -0.32 -0.28 -0.60 -0.60 -0.60 -0.40 0 -0.60 -0.44 -0.60 -1.39 0 -0.95 -0.20 -1.39 -0.60 -1.39 -0.44 0 -0.60 -0.48 -0.60 -1.79 0 -1.47 -0.12 -1.79 -0.75 -1.79 -0.56 0 -0.79 -0.40 -0.99 -1.55 -0.24 -1.59 -0.87 -2.03 -2.90 -2.03 -0.75 0 -0.91 -0.20 -0.91 -1.39 0 -1.03 -0.24 -1.55 -0.99 -2.03 -0.56 -0.36 -0.99 -0.99 -0.99 -1.43 0 -0.68 -1.03 -2.94 -1.59 -3.50 -0.12 -0.12 -0.36 -0.48 -0.60 -0.83 -1.07 -1.71 -3.61 -4.69 -4.05 -4.69 -0.28 -0.04 -0.52 -0.32 -0.52 -0.68 0 -0.79 -0.95 -1.75 -1.75 -1.75 -0.36 0 -0.64 -0.24 -0.64 -0.52 0 -0.28 -0.36 -0.91 -0.79 -1.39 -0.44 -0.48 -0.79 -1.03 -0.79 -1.27 0 -0.20 -0.28 -0.40 -0.60 -0.40 -0.32 0 -0.60 -0.28 -0.60 -0.60 0 -0.32 -0.28 -0.60 -0.60 -0.60 -0.40 0 -0.60 -0.40 -0.60 -1.19 0 -0.64 -0.16 -1.19 -0.36 -1.19 -0.20 0 -0.56 -0.52 -0.79 -1.19 -0.20 -0.64 -0.60 -1.19 -0.79 -1.19 -0.24 0 -0.44 -0.36 -0.44 -0.79 0 -0.83 -1.31 -2.38 -1.99 -2.38 -0.20 0 -0.40 -0.24 -0.40 -0.48 0 -0.28 -0.56 -1.15 -1.19 -1.91 -0.64 -0.75 -1.19 -1.51 -1.19 -1.67 0 -0.20 -0.36 -0.32 -0.79 -0.32 -0.64 0 -0.79 -0.28 -0.79 -1.23 0 -0.83 -0.32 -1.47 -0.99 -2.03 -0.52 -0.40 -1.27 -1.39 -1.63 -2.14 -0.36 -0.75 -0.79 -1.35 -0.99 -1.35 -0.20 0 -0.36 -0.20 -0.36 -0.44 0 -0.48 -0.99 -1.55 -1.47 -1.55 -0.20 0 -0.56 -0.52 -0.79 -1.19 -0.24 -0.64 -0.71 -1.19 -1.07 -1.19 -1.03 0 -0.71 -1.03 0.48 -1.63 0.60 -0.32 2.74 -1.63 4.77 -2.94 5.24 -3.38 8.26 -5.28 22.80 -14.38 7.07 -4.41 19.18 -12.03 26.93 -16.88 l14.10 -8.86 0 -12.31 0 -12.31 -141.67 -0.20 c-133.89 -0.20 -141.71 -0.24 -142.51 -0.87 -0.99 -0.87 -1.03 -2.70 -0.04 -3.93 l0.75 -0.95 144.18 -0.12 c131.58 -0.08 144.22 -0.04 144.81 0.52 0.60 0.60 0.64 8.62 0.64 89.01 0 76.77 -0.08 88.53 -0.60 89.48 -0.95 1.91 -2.70 2.14 -4.45 0.68z"/>
 </g>
 <g fill="#d74024">
  <path d="M283.03 215.79 c-0.12 -0.64 -0.32 -2.54 -0.48 -4.25 -0.20 -2.26 -0.48 -3.38 -0.99 -3.97 -0.44 -0.44 -0.75 -1.11 -0.75 -1.51 0 -0.40 -0.36 -0.91 -0.79 -1.19 -0.44 -0.28 -0.79 -0.68 -0.79 -0.91 0 -0.24 -0.36 -0.68 -0.79 -0.99 -0.44 -0.32 -0.79 -0.99 -0.79 -1.47 0 -0.52 -0.36 -1.11 -0.79 -1.39 -0.44 -0.28 -0.79 -0.75 -0.79 -1.03 0 -0.56 -0.75 -1.99 -1.51 -2.78 -0.28 -0.32 -0.83 -1.27 -1.19 -2.11 -0.36 -0.87 -0.79 -1.55 -0.95 -1.55 -0.20 0 -0.32 -0.28 -0.32 -0.60 0 -0.32 -0.16 -0.60 -0.40 -0.60 -0.20 0 -0.40 -0.36 -0.40 -0.83 0 -0.48 -0.32 -0.91 -0.79 -1.03 -0.44 -0.12 -0.79 -0.56 -0.79 -0.91 0 -0.40 -0.36 -0.87 -0.79 -0.99 -0.44 -0.12 -0.79 -0.48 -0.79 -0.71 0 -0.28 -0.56 -0.83 -1.19 -1.27 -0.83 -0.56 -1.19 -1.11 -1.19 -1.87 0 -0.64 -0.16 -1.11 -0.40 -1.11 -0.20 0 -0.40 -0.20 -0.40 -0.44 0 -0.71 -1.71 -1.91 -2.74 -1.95 -1.23 0 -2.42 -1.43 -2.42 -2.86 0 -0.60 -0.20 -1.11 -0.44 -1.11 -0.79 0 -1.55 -1.15 -1.55 -2.38 0 -0.91 -0.20 -1.31 -0.79 -1.47 -0.44 -0.12 -0.79 -0.48 -0.79 -0.75 0 -0.32 -0.28 -0.56 -0.60 -0.56 -0.36 0 -0.71 -0.28 -0.83 -0.60 -0.16 -0.40 -0.75 -0.60 -1.71 -0.60 -1.07 0 -1.71 -0.28 -2.54 -1.15 -0.60 -0.64 -1.07 -1.27 -1.07 -1.43 0 -0.12 -0.36 -0.60 -0.79 -1.07 -0.44 -0.48 -0.79 -1.27 -0.79 -1.79 0 -0.52 -0.16 -0.91 -0.36 -0.91 -0.20 0 -0.44 -0.36 -0.56 -0.79 -0.12 -0.56 -0.56 -0.79 -1.23 -0.79 -0.87 0 -1.03 -0.20 -1.03 -1.11 0 -0.64 -0.36 -1.51 -0.79 -1.99 -0.44 -0.48 -0.79 -1.03 -0.79 -1.23 0 -0.20 -0.40 -0.44 -0.87 -0.52 -0.95 -0.12 -1.79 -1.79 -1.39 -2.78 0.12 -0.32 2.30 -1.91 4.93 -3.50 2.58 -1.59 5.84 -3.65 7.27 -4.53 1.43 -0.91 3.14 -1.91 3.77 -2.22 0.68 -0.32 1.63 -0.95 2.18 -1.39 0.56 -0.48 3.18 -2.22 5.84 -3.89 l4.85 -3.02 0.83 1.03 c0.44 0.56 0.79 1.27 0.79 1.59 0 0.36 0.24 0.52 0.60 0.36 0.36 -0.12 0.60 0 0.60 0.36 0 0.32 0.20 0.60 0.40 0.60 0.24 0 0.40 0.28 0.40 0.60 0 0.32 0.28 0.60 0.64 0.60 0.32 0 0.48 0.20 0.36 0.44 -0.16 0.24 0.08 0.52 0.56 0.64 0.91 0.24 1.15 0.91 0.36 0.91 -0.28 0 0.04 0.52 0.68 1.15 1.43 1.31 2.38 2.82 1.79 2.82 -0.20 0 -0.40 0.16 -0.40 0.36 0 0.20 0.36 0.28 0.79 0.16 0.52 -0.16 0.79 0 0.79 0.40 0 0.32 0.68 1.31 1.55 2.18 0.83 0.91 1.31 1.71 1.07 1.83 -0.28 0.12 -0.24 0.20 0.08 0.20 0.75 0.04 2.07 1.55 2.07 2.38 0 0.44 0.36 0.91 0.83 1.03 0.48 0.16 0.71 0.48 0.60 0.83 -0.12 0.32 0 0.56 0.24 0.56 0.24 0 0.32 0.12 0.20 0.28 -0.16 0.12 0.20 0.56 0.75 0.95 0.95 0.64 0.99 0.68 0.32 1.07 -0.44 0.24 -0.60 0.56 -0.44 0.71 0.16 0.16 0.52 0.08 0.75 -0.16 0.64 -0.64 1.11 -0.60 1.11 0.12 0 0.32 -0.16 0.60 -0.40 0.60 -0.20 0 -0.40 0.20 -0.40 0.44 0 0.24 0.36 0.32 0.79 0.16 0.60 -0.20 0.71 -0.12 0.56 0.36 -0.12 0.32 0.16 0.99 0.60 1.47 0.48 0.52 0.83 1.11 0.83 1.39 0 0.28 0.32 0.40 0.79 0.28 0.56 -0.16 0.79 0 0.79 0.44 0 0.36 0.20 0.64 0.40 0.64 0.24 0 0.40 0.36 0.40 0.79 0 0.44 0.16 0.75 0.36 0.68 0.32 -0.08 3.38 3.46 4.25 4.93 0.24 0.40 0.56 0.64 0.68 0.48 0.16 -0.12 0.28 0.08 0.28 0.44 0 0.40 0.36 1.23 0.79 1.83 0.44 0.64 0.71 1.39 0.60 1.71 -0.16 0.32 0.20 0.83 0.87 1.27 1.11 0.71 1.11 0.71 0.44 -0.08 -0.87 -0.95 -0.91 -1.31 -0.12 -1.31 0.32 0 0.60 0.28 0.60 0.64 0 0.32 0.20 0.48 0.40 0.36 0.24 -0.12 0.40 0.08 0.40 0.48 0 0.56 0.08 0.60 0.36 0.20 0.24 -0.44 0.40 -0.40 0.60 0.16 0.32 0.79 -1.15 2.46 -1.47 1.63 -0.12 -0.28 -0.24 -0.08 -0.24 0.44 -0.04 0.75 0.08 0.83 0.71 0.48 0.60 -0.28 0.91 -0.24 1.39 0.24 0.44 0.40 0.95 0.52 1.51 0.32 0.75 -0.24 0.83 -0.16 0.48 0.28 -0.64 0.75 -0.24 3.30 0.40 2.78 0.56 -0.48 2.62 1.11 2.62 1.99 0 0.44 -0.08 0.44 -0.40 -0.04 -0.32 -0.48 -0.40 -0.40 -0.40 0.40 0 0.79 -0.08 0.87 -0.40 0.40 -0.32 -0.48 -0.40 -0.44 -0.40 0.32 0 1.15 0.56 1.11 1.51 -0.12 0.91 -1.15 1.67 -1.31 1.67 -0.32 0 0.36 -0.12 0.52 -0.28 0.40 -0.40 -0.44 -1.67 0.91 -1.43 1.55 0.12 0.32 0.36 0.44 0.56 0.32 0.60 -0.36 0.40 0.24 -0.24 0.91 -0.79 0.79 -0.44 1.19 0.40 0.52 0.56 -0.48 0.60 -0.40 0.40 0.52 -0.16 0.60 -0.12 1.07 0.08 1.07 0.24 0 0.75 0.32 1.23 0.71 l0.79 0.71 -0.83 0.68 c-0.48 0.36 -0.64 0.68 -0.36 0.68 0.28 0 0.48 0.28 0.48 0.60 0 0.32 -0.16 0.60 -0.40 0.60 -0.20 0 -0.40 0.24 -0.40 0.56 0 0.64 -1.07 1.15 -1.63 0.79 -0.64 -0.36 -0.40 0.48 0.40 1.35 0.95 1.11 1.63 1.11 1.67 0 0 -0.52 0.12 -0.68 0.24 -0.40 0.24 0.64 0.83 0.60 1.51 -0.08 0.32 -0.28 0.99 -0.44 1.55 -0.36 l1.03 0.20 -0.91 0.71 c-0.48 0.36 -1.59 1.07 -2.46 1.55 -0.87 0.48 -4.29 2.58 -7.63 4.73 -3.34 2.11 -7.43 4.73 -9.14 5.80 -1.71 1.07 -4.49 2.82 -6.16 3.85 -3.57 2.26 -4.93 2.50 -5.24 0.87z"/>
 </g>
 <g fill="#c63c23">
  <path d="M270.36 225.95 l0.87 -0.95 -12.19 -7.67 c-6.71 -4.25 -12.51 -7.90 -12.91 -8.22 -0.64 -0.44 -0.68 -0.83 -0.28 -4.13 0.36 -3.26 0.32 -3.73 -0.28 -4.61 -0.40 -0.52 -0.83 -0.99 -0.99 -0.99 -0.20 0 -0.32 -0.64 -0.32 -1.39 0 -1.11 -0.16 -1.39 -0.79 -1.39 -0.48 0 -0.79 -0.28 -0.79 -0.68 -0.04 -0.79 -1.75 -2.90 -2.38 -2.90 -0.20 0 -0.40 -0.60 -0.40 -1.31 0 -1.11 -0.79 -2.86 -1.63 -3.46 -0.12 -0.12 -0.52 -0.75 -0.87 -1.47 -0.36 -0.68 -1.11 -1.59 -1.67 -2.03 -0.56 -0.44 -0.99 -0.95 -0.99 -1.15 0 -0.24 -0.36 -0.71 -0.79 -1.11 -0.44 -0.40 -0.79 -0.95 -0.79 -1.27 0 -0.28 -0.16 -0.52 -0.32 -0.52 -0.20 0 -0.56 -0.44 -0.87 -0.95 -0.28 -0.52 -0.83 -1.07 -1.23 -1.15 -0.52 -0.16 -0.75 -0.56 -0.75 -1.43 0 -1.27 -1.03 -2.82 -1.87 -2.82 -0.28 0 -0.52 -0.36 -0.52 -0.83 0 -1.03 -0.71 -2.42 -1.67 -3.06 -0.40 -0.28 -0.71 -0.91 -0.71 -1.43 0 -0.48 -0.20 -1.07 -0.44 -1.31 -0.24 -0.24 -0.36 -1.11 -0.28 -1.95 0.12 -1.47 0.32 -1.67 3.18 -3.53 8.14 -5.24 21.49 -13.46 22 -13.54 1.23 -0.20 0.20 0.99 -1.83 2.03 -1.35 0.68 -3.14 1.99 -4.41 3.18 -0.36 0.32 -0.83 0.60 -1.11 0.60 -0.36 0 -0.36 0.20 -0.04 0.83 0.28 0.48 0.68 0.71 1.07 0.60 0.40 -0.16 0.68 0.04 0.79 0.60 0.16 0.52 0.44 0.71 0.79 0.56 0.44 -0.12 0.52 -0.04 0.36 0.40 -0.12 0.36 0.24 0.91 0.99 1.47 1.15 0.83 2.18 2.46 2.03 3.18 -0.04 0.20 0.16 0.32 0.48 0.32 0.36 0 0.48 0.28 0.36 0.75 -0.12 0.44 0.08 1.19 0.44 1.71 0.52 0.71 0.64 0.75 0.64 0.20 0 -0.36 -0.24 -0.68 -0.48 -0.68 -0.36 0 -0.32 -0.16 0.08 -0.40 0.91 -0.60 1.03 -0.52 0.99 1.23 0 0.87 0.12 1.71 0.28 1.83 0.20 0.08 0.28 -0.04 0.24 -0.32 -0.08 -0.28 0.20 -0.60 0.60 -0.68 0.64 -0.12 0.68 -0.04 0.28 0.71 -0.64 1.15 0.04 1.83 1.83 1.91 0.83 0.04 1.67 0.32 1.91 0.71 0.44 0.56 0.52 0.56 0.99 0 0.32 -0.36 0.71 -0.64 0.95 -0.64 0.28 0 0.28 0.16 -0.04 0.48 -0.68 0.68 -0.60 1.91 0.16 1.91 0.36 0 0.71 0.36 0.83 0.79 0.12 0.44 0.36 0.68 0.56 0.56 0.20 -0.12 0.36 0 0.36 0.20 0 0.24 -0.16 0.44 -0.40 0.44 -0.60 0 -0.48 0.75 0.20 1.43 0.40 0.40 0.91 0.52 1.47 0.32 0.79 -0.24 0.83 -0.20 0.36 0.36 -0.44 0.56 -0.44 0.71 0.12 0.91 0.83 0.32 0.83 0.87 0 1.03 -0.52 0.12 -0.52 0.24 0.20 1.07 l0.83 0.95 0 -1.03 c0 -0.60 0.12 -1.07 0.32 -1.07 0.40 0 1.67 1.51 1.67 1.99 0 0.20 0.36 0.60 0.79 0.87 0.44 0.28 0.79 0.75 0.79 1.07 0 0.32 0.12 0.48 0.24 0.32 0.16 -0.12 0.52 0.04 0.83 0.36 0.48 0.48 0.48 0.71 0.12 1.15 -0.68 0.83 1.07 2.30 2.07 1.75 0.48 -0.24 0.71 -0.24 0.71 0.04 0 0.20 -0.16 0.40 -0.40 0.40 -0.71 0 -0.40 1.15 0.40 1.39 0.44 0.12 0.79 0.60 0.79 0.99 0 0.56 0.20 0.68 0.87 0.48 0.56 -0.12 0.75 -0.04 0.56 0.24 -0.12 0.24 0.04 0.68 0.36 0.99 0.44 0.48 0.48 0.68 0.08 0.79 -0.36 0.16 -0.36 0.24 0.04 0.24 0.24 0.04 0.48 0.32 0.48 0.64 0 0.32 0.20 0.60 0.40 0.60 0.24 0 0.40 0.28 0.40 0.60 0 0.36 0.24 0.71 0.56 0.83 0.32 0.12 0.52 0.44 0.40 0.71 -0.08 0.24 0.12 0.83 0.52 1.27 0.95 1.07 1.71 2.42 1.71 3.02 0 0.28 0.36 0.75 0.79 1.03 0.44 0.28 0.79 0.87 0.79 1.39 0 0.48 0.36 1.15 0.79 1.47 0.44 0.32 0.79 0.75 0.79 0.99 0 0.24 0.36 0.64 0.79 0.91 0.44 0.28 0.79 0.79 0.79 1.19 0 0.40 0.36 1.11 0.79 1.59 0.44 0.48 0.79 1.03 0.79 1.27 0 0.20 0.20 0.40 0.40 0.40 0.52 0 0.52 1.47 -0.04 1.79 -0.24 0.20 -0.12 0.52 0.40 0.87 0.79 0.56 0.79 1.59 0 1.07 -0.24 -0.12 -0.36 0.36 -0.28 1.15 0.04 1.07 0.24 1.35 0.68 1.15 0.56 -0.20 0.56 -0.12 0.08 0.44 -0.32 0.40 -0.44 0.79 -0.32 0.91 0.20 0.24 1.91 -0.52 2.26 -1.03 0.36 -0.44 3.10 -1.59 3.85 -1.59 0.64 0 -0.64 0.91 -6.83 4.85 -1.07 0.71 -3.93 2.54 -6.35 4.09 -2.38 1.59 -5.16 3.38 -6.16 3.97 -1.71 1.03 -1.75 1.03 -0.91 0.16z"/>
 </g>
 <g fill="#b33820">
  <path d="M337.64 210.42 c0.04 -12.95 0.20 -22.20 0.36 -20.57 0.48 4.85 0.48 44.09 0 44.09 -0.28 0 -0.40 -7.59 -0.36 -23.51z"/>
  <path d="M343.76 141.20 c0 -42.38 0.04 -59.66 0.08 -38.41 0.08 21.29 0.08 55.96 0 77.05 -0.04 21.13 -0.08 3.73 -0.08 -38.65z"/>
  <path d="M239.30 204.82 c-14.74 -9.25 -33.88 -21.29 -36.74 -23.12 -2.78 -1.79 -2.90 -1.95 -2.18 -2.46 0.44 -0.32 6.59 -4.21 13.70 -8.62 11.64 -7.27 15.29 -9.17 13.27 -6.95 -0.36 0.40 -0.52 0.91 -0.32 1.19 0.20 0.36 0.08 0.40 -0.36 0.24 -0.83 -0.32 -1.23 0.87 -0.56 1.67 0.32 0.36 0.48 0.87 0.40 1.19 -0.12 0.28 0.16 0.91 0.60 1.39 2.30 2.34 3.10 3.46 2.07 2.82 -0.20 -0.12 -0.40 0.04 -0.40 0.36 0 0.36 0.24 0.64 0.52 0.64 0.56 0 1.87 1.39 1.87 1.95 0 0.20 0.24 0.48 0.52 0.56 0.36 0.16 0.36 0.32 -0.08 0.60 -0.28 0.20 -0.40 0.60 -0.24 0.87 0.24 0.36 0.36 0.36 0.60 0 0.20 -0.36 0.52 -0.04 0.99 0.95 0.40 0.79 0.83 1.43 1.03 1.43 0.20 0 0.36 0.24 0.36 0.52 0 0.32 0.36 0.87 0.79 1.27 0.44 0.40 0.79 0.95 0.79 1.27 0 0.48 0.52 0.68 1.31 0.56 0.20 -0.04 0.24 0.08 0.12 0.28 -0.12 0.20 0.20 0.75 0.71 1.31 0.48 0.52 0.87 1.07 0.87 1.23 -0.04 0.32 1.19 2.11 2.07 2.94 0.24 0.28 0.48 0.68 0.48 0.91 0 0.24 0.20 0.44 0.44 0.44 0.24 0 0.12 0.32 -0.28 0.68 -0.40 0.44 -0.52 0.71 -0.24 0.83 0.64 0.20 3.26 2.86 2.82 2.86 -0.20 0 -0.36 0.16 -0.36 0.40 0 0.20 0.28 0.28 0.64 0.12 0.40 -0.16 0.68 0.04 0.83 0.64 0.12 0.44 0.36 0.71 0.56 0.60 0.20 -0.12 0.36 -0.04 0.36 0.20 0 0.20 -0.16 0.52 -0.40 0.64 -0.71 0.44 -0.44 1.07 0.40 0.87 0.44 -0.12 0.79 -0.04 0.79 0.16 0 0.20 -0.24 0.36 -0.48 0.36 -0.28 0.04 -0.08 0.40 0.44 0.79 0.52 0.44 0.79 0.79 0.64 0.79 -0.20 0 0 0.36 0.44 0.83 0.40 0.44 0.56 0.79 0.36 0.75 -0.95 -0.20 -1.07 0.04 -0.40 0.79 0.52 0.56 0.56 0.79 0.20 0.79 -0.28 0 -0.12 0.36 0.40 0.79 0.52 0.44 0.71 0.79 0.48 0.79 -0.24 0 -0.56 -0.16 -0.68 -0.40 -0.12 -0.20 -0.52 -0.40 -0.87 -0.40 -0.52 0 -0.52 0.12 -0.12 0.60 0.40 0.48 0.40 0.75 0.08 1.07 -0.60 0.60 -0.64 1.91 -0.08 1.91 0.24 0 0.40 0.16 0.40 0.40 0 0.20 -0.28 0.28 -0.60 0.16 -0.44 -0.20 -0.52 -0.08 -0.36 0.40 0.12 0.36 0.08 0.64 -0.08 0.64 -0.20 0 -3.57 -2.03 -7.51 -4.49z"/>
  <path d="M54.93 94.13 c0 -1.63 0.08 -2.30 0.16 -1.47 0.08 0.79 0.08 2.14 0 2.98 -0.08 0.79 -0.16 0.12 -0.16 -1.51z"/>
 </g>
</svg>
